<!DOCTYPE svg PUBLIC "-//W3C//DTD SVG 1.1//EN" "http://www.w3.org/Graphics/SVG/1.1/DTD/svg11.dtd">
<svg width="800px" height="800px" viewBox="0 0 24 24" fill="none" xmlns="http://www.w3.org/2000/svg" transform="matrix(-1, 0, 0, 1, 0, 0)">
  <g id="SVGRepo_bgCarrier" stroke-width="0"/>
  <g id="SVGRepo_tracerCarrier" stroke-linecap="round" stroke-linejoin="round"/>
  <g id="SVGRepo_iconCarrier">
    <path d="M6.67 14H4C2.9 14 2 14.9 2 16V21C2 21.55 2.45 22 3 22H6.67C7.22 22 7.67 21.55 7.67 21V15C7.67 14.45 7.22 14 6.67 14Z" fill="#292D32"/>
    <path d="M13.3302 10H10.6602C9.56016 10 8.66016 10.9 8.66016 12V21C8.66016 21.55 9.11016 22 9.66016 22H14.3302C14.8802 22 15.3302 21.55 15.3302 21V12C15.3302 10.9 14.4402 10 13.3302 10Z" fill="#292D32"/>
    <path d="M20.0001 17H17.3301C16.7801 17 16.3301 17.45 16.3301 18V21C16.3301 21.55 16.7801 22 17.3301 22H21.0001C21.5501 22 22.0001 21.55 22.0001 21V19C22.0001 17.9 21.1001 17 20.0001 17Z" fill="#292D32"/>
  </g>
</svg>
